<svg xmlns="http://www.w3.org/2000/svg" viewBox="0 0 600 750">
  <defs>
    <linearGradient id="bg" x1="0" y1="0" x2="1" y2="1">
      <stop offset="0" stop-color="#f1f5f9"/>
      <stop offset="1" stop-color="#e2e8f0"/>
    </linearGradient>
    <linearGradient id="shape" x1="0" y1="0" x2="0" y2="1">
      <stop offset="0" stop-color="#94a3b8"/>
      <stop offset="1" stop-color="#64748b"/>
    </linearGradient>
    <linearGradient id="hair" x1="0" y1="0" x2="0" y2="1">
      <stop offset="0" stop-color="#6b7280"/>
      <stop offset="1" stop-color="#4b5563"/>
    </linearGradient>
  </defs>
  <rect width="600" height="750" rx="36" fill="url(#bg)"/>
  <circle cx="300" cy="230" r="86" fill="url(#shape)"/>
  <path d="M210 210c10-60 70-100 150-100s140 40 150 100c-30-30-70-46-150-46s-120 16-150 46z" fill="url(#hair)"/>
  <path d="M220 260c-8 40 6 90 44 120 16 12 28 22 36 36 10 18 18 42 18 62h-38c-6-28-20-44-40-60-56-44-76-106-60-158 10 8 24 12 40 12z" fill="url(#hair)" opacity="0.85"/>
  <path d="M210 400c0-60 90-110 90-110s90 50 90 110v36H210v-36z" fill="url(#shape)"/>
  <path d="M170 620c0-90 60-150 130-150h0c70 0 130 60 130 150v40H170v-40z" fill="url(#shape)"/>
  <path d="M230 290c18 36 50 54 70 54s52-18 70-54c16 60-16 124-70 124s-86-64-70-124z" fill="#a5b4fc" opacity="0.3"/>
</svg>
